{"title":"Diamond Foxxx Goes For a Hard Ride[truehdporn].mp4","uid":7570542,"size":527514088,"categoryP":"porn","categoryS":"movies","magnet":"?xt=urn:btih:0b6b284d62ceec1ff94e59dc34f0e272a74ef0dc&amp;dn=Diamond+Foxxx+Goes+For+a+Hard+Ride%5Btruehdporn%5D.mp4&amp;tr=udp%3A%2F%2Ftracker.openbittorrent.com%3A80&amp;tr=udp%3A%2F%2Fopen.demonii.com%3A1337&amp;tr=udp%3A%2F%2Ftracker.coppersurfer.tk%3A6969&amp;tr=udp%3A%2F%2Fexodus.desync.com%3A6969","seeders":1,"leechers":0,"uploader":"hdporn","files":1,"time":1345973603,"description":"Format : MPEG-4\nFormat profile : Base Media\nCodec ID : isom\nFile size : 503 MiB\nDuration : 18mn 0s\nOverall bit rate mode : Variable\nOverall bit rate : 3 907 Kbps\nWriting application : Lavf53.4.0\n\nVideo\nID : 1\nFormat : AVC\nFormat/Info : Advanced Video Codec\nFormat profile : &lt;a class=&quot;__cf_email__&quot; href=&quot;/cdn-cgi/l/email-protection&quot; data-cfemail=&quot;753d1c121d3539405b44&quot;&gt;[email&amp;#160;protected]&lt;/a&gt;&lt;script data-cfhash='f9e31' type=&quot;text/javascript&quot;&gt;\n/* &lt;![CDATA[ */!function(){try{var t=&quot;currentScript&quot;in document?document.currentScript:function(){for(var t=document.getElementsByTagName(&quot;script&quot;),e=t.length;e--;)if(t[e].getAttribute(&quot;data-cfhash&quot;))return t[e]}();if(t&amp;&amp;t.previousSibling){var e,r,n,i,c=t.previousSibling,a=c.getAttribute(&quot;data-cfemail&quot;);if(a){for(e=&quot;&quot;,r=parseInt(a.substr(0,2),16),n=2;a.length-n;n+=2)i=parseInt(a.substr(n,2),16)^r,e+=String.fromCharCode(i);e=document.createTextNode(e),c.parentNode.replaceChild(e,c)}t.parentNode.removeChild(t);}}catch(u){}}()/* ]]&gt; */&lt;/script&gt;\nFormat settings, CABAC : Yes\nFormat settings, ReFrames : 16 frames\nCodec ID : avc1\nCodec ID/Info : Advanced Video Coding\nDuration : 17mn 59s\nBit rate mode : Variable\nBit rate : 3 868 Kbps\nWidth : 1 920 pixels\nHeight : 1 080 pixels\nDisplay aspect ratio : 16:9\nFrame rate mode : Constant\nFrame rate : 29.970 fps\nColor space : YUV\nChroma subsampling : 4:2:0\nBit depth : 8 bits\nScan type : Progressive\nBits/(Pixel*Frame) : 0.062\nStream size : 497 MiB (99%)\n\nAudio\nID : 2\nFormat : AAC\nFormat/Info : Advanced Audio Codec\nFormat profile : LC\nCodec ID : 40\nDuration : 18mn 0s\nBit rate mode : Variable\nBit rate : 40.3 Kbps\nMaximum bit rate : 64.0 Kbps\nChannel(s) : 2 channels\nChannel positions : Front: L R\nSampling rate : 48.0 KHz\nCompression mode : Lossy\nStream size : 5.19 MiB (1%)\n\nSCREENSHOT.....\n &lt;a href=&quot;\nhttp://www.pixsor.com/share-21EA_5039D2F1.html&quot; rel=&quot;nofollow&quot; target=&quot;_NEW&quot;&gt;\nhttp://www.pixsor.com/share-21EA_5039D2F1.html&lt;/a&gt;","torrent":{"xt":"urn:btih:0b6b284d62ceec1ff94e59dc34f0e272a74ef0dc","amp;dn":"Diamond+Foxxx+Goes+For+a+Hard+Ride%5Btruehdporn%5D.mp4","amp;tr":["udp%3A%2F%2Ftracker.openbittorrent.com%3A80","udp%3A%2F%2Fopen.demonii.com%3A1337","udp%3A%2F%2Ftracker.coppersurfer.tk%3A6969","udp%3A%2F%2Fexodus.desync.com%3A6969"],"infoHash":"0b6b284d62ceec1ff94e59dc34f0e272a74ef0dc","infoHashBuffer":{"type":"Buffer","data":[11,107,40,77,98,206,236,31,249,78,89,220,52,240,226,114,167,78,240,220]},"announce":[],"urlList":[]}}